<svg width="366" height="97" viewBox="0 0 366 97" fill="none" xmlns="http://www.w3.org/2000/svg">
<path d="M57.0879 1.02364C47.58 -1.02838 39.6928 0.458491 30.2592 1.55514C20.7918 2.65179 10.1629 3.49951 0.884613 5.14112C0.68203 5.17476 0.0135055 5.27568 0 5.41024L7.83997 27.2221L59.7553 19.5052L21.0146 63.8893L32.6091 96.1496L71.4578 91.2382L58.9517 57.0604C64.8198 56.6769 70.6475 55.3044 75.7593 52.3711C82.6404 48.4151 87.4079 41.8352 88.1372 33.8289V31.1849C87.05 15.4819 71.4376 4.11848 57.0947 1.03036L57.0879 1.02364Z" fill="white"/>
<path d="M106.69 72.0588V40.5023L114.758 32.0607H106.69V24.4H125.537C134.757 24.4 141.062 30.7048 141.062 39.7213C141.062 48.7378 134.554 55.3138 125.537 55.3138H114.758V72.0588H106.69ZM114.758 32.0607V47.7209H124.859C129.605 47.7209 132.859 44.4669 132.859 39.7891C132.859 35.1792 129.605 32.0607 124.859 32.0607H114.758Z" fill="white"/>
<path d="M143 72.0588V37.9587H150.321V43.7889C152.22 39.5857 155.27 37.6197 159.948 37.6197H164.219V45.3482H157.982C153.779 45.3482 150.796 49.4836 150.796 55.246V72.0588H143Z" fill="white"/>
<path d="M165.215 72.0588V37.9587H173.011V72.0588H165.215ZM165.147 32.4674V24.739H173.079V32.4674H165.147Z" fill="white"/>
<path d="M177.103 72.0588V37.9587H184.357V41.7551C186.594 38.9078 189.984 37.2808 193.712 37.2808C197.915 37.2808 201.102 39.3146 202.864 42.772C205.169 39.3146 208.83 37.2808 213.101 37.2808C219.677 37.2808 223.88 42.1619 223.88 49.6869V72.0588H216.084V51.7207C216.084 47.043 214.05 44.3313 210.661 44.3313C206.864 44.3313 204.356 47.7887 204.356 53.2122V72.0588H196.56V51.7207C196.56 47.043 194.594 44.3313 191.204 44.3313C187.34 44.3313 184.899 47.7887 184.899 53.2122V72.0588H177.103Z" fill="white"/>
<path d="M225.488 55.1104C225.488 44.6024 232.335 37.2808 242.097 37.2808C251.114 37.2808 257.283 43.5178 257.893 53.1444L257.757 57.4154H233.352C234.233 62.5677 237.555 65.754 242.233 65.754C245.555 65.754 248.131 64.1947 249.554 61.3474H256.605V63.5168C254.232 69.2792 248.673 72.7367 241.962 72.7367C232.199 72.7367 225.488 65.4828 225.488 55.1104ZM241.894 43.9923C237.623 43.9923 234.572 46.6362 233.487 51.0428H250.232C249.08 46.6362 246.165 43.9923 241.894 43.9923Z" fill="white"/>
<path d="M263.675 30.298H271.065V37.9587H281.031V44.9414H271.065V60.8051C271.065 64.8727 271.268 65.076 275.336 65.076H281.031V72.0588H272.285C265.777 72.0588 263.269 69.4826 263.269 62.9744V44.9414H255.947V37.9587H263.675V30.298Z" fill="white"/>
<path d="M283.406 72.0588V37.9587H290.728V43.7889C292.626 39.5857 295.677 37.6197 300.354 37.6197H304.625V45.3482H298.388C294.185 45.3482 291.202 49.4836 291.202 55.246V72.0588H283.406Z" fill="white"/>
<path d="M302.926 55.1104C302.926 44.6024 309.773 37.2808 319.535 37.2808C328.552 37.2808 334.721 43.5178 335.331 53.1444L335.195 57.4154H310.79C311.671 62.5677 314.993 65.754 319.671 65.754C322.993 65.754 325.569 64.1947 326.992 61.3474H334.043V63.5168C331.67 69.2792 326.111 72.7367 319.4 72.7367C309.637 72.7367 302.926 65.4828 302.926 55.1104ZM319.332 43.9923C315.061 43.9923 312.01 46.6362 310.925 51.0428H327.67C326.518 46.6362 323.603 43.9923 319.332 43.9923Z" fill="white"/>
<path d="M333.325 72.0588V69.8216L344.037 54.5003L334.274 40.1959V37.9587H341.935L349.324 49.348L356.714 37.9587H364.375V40.1959L354.68 54.5003L365.324 69.8216V72.0588H357.663L349.324 59.856L340.986 72.0588H333.325Z" fill="white"/>
</svg>
